<svg xmlns='http://www.w3.org/2000/svg' version='1.1' width='1035px' height='803px'><svg xmlns="http://www.w3.org/2000/svg" id="graphic" style="position: absolute;" font-family="Source Sans Pro" width="1024" height="674.7088822021484" x="10.5" y="127.5"><g class="facets"><g class="facet" transform="translate(0,14)" opacity="1"><g class="fl-chart"><clipPath class="fl-data-clip-path" id="fl-chart-layout-1-clip-path"><rect x="58.82438354492187" y="0" width="950.7536712646485" height="598.4088822021484"/></clipPath><clipPath class="fl-grid-clip-path" id="fl-chart-layout-1-grid-clip-path"><rect x="57.82438354492187" y="-1.5" width="952.7536712646485" height="601.4088822021484"/></clipPath><g class="fl-chart-background"><rect class="fl-chart-fill" x="58.82438354492187" y="0" width="950.7536712646485" height="598.4088822021484" fill="none"/><image class="fl-chart-image" x="58.82438354492187" y="0" width="950.7536712646485" height="598.4088822021484" preserveAspectRatio="none"/><rect class="fl-chart-interaction" x="58.82438354492187" y="0" width="950.7536712646485" height="598.4088822021484" style="opacity: 0;"/></g><g class="fl-data-background" clip-path="url(#fl-chart-layout-1-clip-path)"/><g class="fl-gridlines" clip-path="url(#fl-chart-layout-1-grid-clip-path)" style="pointer-events: none;"><g class="fl-gridlines-vertical"><line x1="58.82438354492187" x2="58.82438354492187" y1="0" y2="598.4088822021484" style="shape-rendering: crispedges; opacity: 1; stroke: rgb(255, 255, 255); stroke-width: 1;"/><line x1="194.6463365827288" x2="194.6463365827288" y1="0" y2="598.4088822021484" style="shape-rendering: crispedges; opacity: 1; stroke: rgb(255, 255, 255); stroke-width: 1;"/><line x1="330.4682896205357" x2="330.4682896205357" y1="0" y2="598.4088822021484" style="shape-rendering: crispedges; opacity: 1; stroke: rgb(255, 255, 255); stroke-width: 1;"/><line x1="466.2902426583426" x2="466.2902426583426" y1="0" y2="598.4088822021484" style="shape-rendering: crispedges; opacity: 1; stroke: rgb(255, 255, 255); stroke-width: 1;"/><line x1="602.1121956961495" x2="602.1121956961495" y1="0" y2="598.4088822021484" style="shape-rendering: crispedges; opacity: 1; stroke: rgb(255, 255, 255); stroke-width: 1;"/><line x1="737.9341487339565" x2="737.9341487339565" y1="0" y2="598.4088822021484" style="shape-rendering: crispedges; opacity: 1; stroke: rgb(255, 255, 255); stroke-width: 1;"/><line x1="873.7561017717633" x2="873.7561017717633" y1="0" y2="598.4088822021484" style="shape-rendering: crispedges; opacity: 1; stroke: rgb(255, 255, 255); stroke-width: 1;"/><line x1="1009.5780548095703" x2="1009.5780548095703" y1="0" y2="598.4088822021484" style="shape-rendering: crispedges; opacity: 1; stroke: rgb(255, 255, 255); stroke-width: 1;"/></g><g class="fl-gridlines-horizontal"><line x1="58.82438354492187" x2="1009.5780548095703" y1="566.0624561371675" y2="566.0624561371675" style="shape-rendering: crispedges; opacity: 1; stroke: rgb(255, 255, 255); stroke-width: 1.5;"/><line x1="58.82438354492187" x2="1009.5780548095703" y1="485.1963909747149" y2="485.1963909747149" style="shape-rendering: crispedges; opacity: 1; stroke: rgb(255, 255, 255); stroke-width: 1.5;"/><line x1="58.82438354492187" x2="1009.5780548095703" y1="404.33032581226246" y2="404.33032581226246" style="shape-rendering: crispedges; opacity: 1; stroke: rgb(255, 255, 255); stroke-width: 1.5;"/><line x1="58.82438354492187" x2="1009.5780548095703" y1="323.46426064981" y2="323.46426064981" style="shape-rendering: crispedges; opacity: 1; stroke: rgb(255, 255, 255); stroke-width: 1.5;"/><line x1="58.82438354492187" x2="1009.5780548095703" y1="242.59819548735746" y2="242.59819548735746" style="shape-rendering: crispedges; opacity: 1; stroke: rgb(255, 255, 255); stroke-width: 1.5;"/><line x1="58.82438354492187" x2="1009.5780548095703" y1="161.732130324905" y2="161.732130324905" style="shape-rendering: crispedges; opacity: 1; stroke: rgb(255, 255, 255); stroke-width: 1.5;"/><line x1="58.82438354492187" x2="1009.5780548095703" y1="80.86606516245246" y2="80.86606516245246" style="shape-rendering: crispedges; opacity: 1; stroke: rgb(255, 255, 255); stroke-width: 1.5;"/><line x1="58.82438354492187" x2="1009.5780548095703" y1="0" y2="0" style="shape-rendering: crispedges; opacity: 1; stroke: rgb(255, 255, 255); stroke-width: 1.5;"/></g></g><g class="fl-axes"><g class="fl-x-axes"><g class="fl-axis fl-x-axis fl-bottom-axis"><g class="fl-axis-line"/><g class="fl-axis-ticks"><g transform="translate(1009.5780548095703,598.4088822021484)" style="opacity: 1;"><line y2="7" style="stroke: rgb(255, 255, 255); stroke-width: 1.5;"/><text text-anchor="end" transform="translate(12.524383544921875,18.816000000000003)" style="user-select: none; cursor: default; fill: rgb(170, 170, 170); font-size: 12.6px; font-weight: normal;"><tspan x="0" dy="0">5000</tspan></text></g><g transform="translate(737.9341487339565,598.4088822021484)" style="opacity: 1;"><line y2="7" style="stroke: rgb(255, 255, 255); stroke-width: 1.5;"/><text text-anchor="end" transform="translate(12.524383544921875,18.816000000000003)" style="user-select: none; cursor: default; fill: rgb(170, 170, 170); font-size: 12.6px; font-weight: normal;"><tspan x="0" dy="0">4000</tspan></text></g><g transform="translate(466.2902426583426,598.4088822021484)" style="opacity: 1;"><line y2="7" style="stroke: rgb(255, 255, 255); stroke-width: 1.5;"/><text text-anchor="end" transform="translate(12.524383544921875,18.816000000000003)" style="user-select: none; cursor: default; fill: rgb(170, 170, 170); font-size: 12.6px; font-weight: normal;"><tspan x="0" dy="0">3000</tspan></text></g><g transform="translate(194.6463365827288,598.4088822021484)" style="opacity: 1;"><line y2="7" style="stroke: rgb(255, 255, 255); stroke-width: 1.5;"/><text text-anchor="end" transform="translate(12.524383544921875,18.816000000000003)" style="user-select: none; cursor: default; fill: rgb(170, 170, 170); font-size: 12.6px; font-weight: normal;"><tspan x="0" dy="0">2000</tspan></text></g><g transform="translate(873.7561017717633,598.4088822021484)" style="opacity: 1;"><line y2="7" style="stroke: rgb(255, 255, 255); stroke-width: 1.5;"/><text text-anchor="end" transform="translate(12.524383544921875,18.816000000000003)" style="user-select: none; cursor: default; fill: rgb(170, 170, 170); font-size: 12.6px; font-weight: normal;"><tspan x="0" dy="0">4500</tspan></text></g><g transform="translate(602.1121956961495,598.4088822021484)" style="opacity: 1;"><line y2="7" style="stroke: rgb(255, 255, 255); stroke-width: 1.5;"/><text text-anchor="end" transform="translate(12.524383544921875,18.816000000000003)" style="user-select: none; cursor: default; fill: rgb(170, 170, 170); font-size: 12.6px; font-weight: normal;"><tspan x="0" dy="0">3500</tspan></text></g><g transform="translate(330.4682896205357,598.4088822021484)" style="opacity: 1;"><line y2="7" style="stroke: rgb(255, 255, 255); stroke-width: 1.5;"/><text text-anchor="end" transform="translate(12.524383544921875,18.816000000000003)" style="user-select: none; cursor: default; fill: rgb(170, 170, 170); font-size: 12.6px; font-weight: normal;"><tspan x="0" dy="0">2500</tspan></text></g><g transform="translate(58.82438354492187,598.4088822021484)" style="opacity: 1;"><line y2="7" style="stroke: rgb(255, 255, 255); stroke-width: 1.5;"/><text text-anchor="end" transform="translate(12.524383544921875,18.816000000000003)" style="user-select: none; cursor: default; fill: rgb(170, 170, 170); font-size: 12.6px; font-weight: normal;"><tspan x="0" dy="0">1500</tspan></text></g></g><g class="fl-axis-title"><text text-anchor="middle" style="font-size: 15.4px; fill: rgb(170, 170, 170); font-weight: normal; user-select: none; cursor: default;" x="534.2012191772461" y="633.3088822021484" dy="15.400000000000002">Weight</text></g></g><g class="fl-axis fl-x-axis fl-top-axis"><g class="fl-axis-line"/><g class="fl-axis-ticks"/><g class="fl-axis-title"/></g></g><g class="fl-y-axes"><g class="fl-axis fl-y-axis fl-left-axis"><g class="fl-axis-line"><line x1="58.82438354492187" x2="58.82438354492187" y1="0" y2="598.4088822021484" style="shape-rendering: crispedges; stroke-linecap: square; stroke-width: 1.5; opacity: 1; stroke: rgb(238, 238, 238);"/></g><g class="fl-axis-ticks"><g transform="translate(58.82438354492187,80.86606516245246)" style="opacity: 1;"><line x2="-7" style="stroke: rgb(238, 238, 238); stroke-width: 1.5;"/><text text-anchor="end" transform="translate(-10.5,4.158)" style="user-select: none; cursor: default; fill: rgb(170, 170, 170); font-size: 12.6px; font-weight: normal;"><tspan x="0" dy="0">40</tspan></text></g><g transform="translate(58.82438354492187,242.59819548735746)" style="opacity: 1;"><line x2="-7" style="stroke: rgb(238, 238, 238); stroke-width: 1.5;"/><text text-anchor="end" transform="translate(-10.5,4.158)" style="user-select: none; cursor: default; fill: rgb(170, 170, 170); font-size: 12.6px; font-weight: normal;"><tspan x="0" dy="0">30</tspan></text></g><g transform="translate(58.82438354492187,404.33032581226246)" style="opacity: 1;"><line x2="-7" style="stroke: rgb(238, 238, 238); stroke-width: 1.5;"/><text text-anchor="end" transform="translate(-10.5,4.158)" style="user-select: none; cursor: default; fill: rgb(170, 170, 170); font-size: 12.6px; font-weight: normal;"><tspan x="0" dy="0">20</tspan></text></g><g transform="translate(58.82438354492187,566.0624561371675)" style="opacity: 1;"><line x2="-7" style="stroke: rgb(238, 238, 238); stroke-width: 1.5;"/><text text-anchor="end" transform="translate(-10.5,4.158)" style="user-select: none; cursor: default; fill: rgb(170, 170, 170); font-size: 12.6px; font-weight: normal;"><tspan x="0" dy="0">10</tspan></text></g><g transform="translate(58.82438354492187,0)" style="opacity: 1;"><line x2="-7" style="stroke: rgb(238, 238, 238); stroke-width: 1.5;"/><text text-anchor="end" transform="translate(-10.5,4.158)" style="user-select: none; cursor: default; fill: rgb(170, 170, 170); font-size: 12.6px; font-weight: normal;"><tspan x="0" dy="0">45</tspan></text></g><g transform="translate(58.82438354492187,161.732130324905)" style="opacity: 1;"><line x2="-7" style="stroke: rgb(238, 238, 238); stroke-width: 1.5;"/><text text-anchor="end" transform="translate(-10.5,4.158)" style="user-select: none; cursor: default; fill: rgb(170, 170, 170); font-size: 12.6px; font-weight: normal;"><tspan x="0" dy="0">35</tspan></text></g><g transform="translate(58.82438354492187,323.46426064981)" style="opacity: 1;"><line x2="-7" style="stroke: rgb(238, 238, 238); stroke-width: 1.5;"/><text text-anchor="end" transform="translate(-10.5,4.158)" style="user-select: none; cursor: default; fill: rgb(170, 170, 170); font-size: 12.6px; font-weight: normal;"><tspan x="0" dy="0">25</tspan></text></g><g transform="translate(58.82438354492187,485.1963909747149)" style="opacity: 1;"><line x2="-7" style="stroke: rgb(238, 238, 238); stroke-width: 1.5;"/><text text-anchor="end" transform="translate(-10.5,4.158)" style="user-select: none; cursor: default; fill: rgb(170, 170, 170); font-size: 12.6px; font-weight: normal;"><tspan x="0" dy="0">15</tspan></text></g></g><g class="fl-axis-title"><text text-anchor="middle" style="font-size: 15.4px; fill: rgb(170, 170, 170); font-weight: normal; user-select: none; cursor: default;" x="0" y="0" transform="translate(22.31800079345703, 299.2044372558594) rotate(-90)">MPG</text></g></g><g class="fl-axis fl-y-axis fl-right-axis"><g class="fl-axis-line"/><g class="fl-axis-ticks"/><g class="fl-axis-title"/></g></g></g><g class="fl-data-foreground" clip-path="url(#fl-chart-layout-1-clip-path)"><g class="axis-highlights"/></g></g><text class="facet-title" y="0" font-size="1.25rem" font-weight="bold" dominant-baseline="middle" x="58.82438354492187" clip-path="url(#facet-clip-0-13)" fill="rgb(136, 136, 136)" opacity="0"/></g></g><g class="fits"/><g class="violins"/><g class="lines"/><g class="data-points" style=""><path class="data-point" d="M10.577740077423215,0A10.577740077423215,10.577740077423215,0,1,1,-10.577740077423215,0A10.577740077423215,10.577740077423215,0,1,1,10.577740077423215,0" vector-effect="non-scaling-stroke" stroke="#a2a400" fill="#a2a400" fill-opacity="0.5" stroke-opacity="0" stroke-width="1" transform="translate(588.2583564862932,466.849964909734) scale(1)" id="dot-0"/><path class="data-point" d="M11.86700667927131,0A11.86700667927131,11.86700667927131,0,1,1,-11.86700667927131,0A11.86700667927131,11.86700667927131,0,1,1,11.86700667927131,0" vector-effect="non-scaling-stroke" stroke="#a2a400" fill="#a2a400" fill-opacity="0.5" stroke-opacity="0" stroke-width="1" transform="translate(830.5647207057408,499.1963909747149) scale(1)" id="dot-1"/><path class="data-point" d="M8.77210125911682,0A8.77210125911682,8.77210125911682,0,1,1,-8.77210125911682,0A8.77210125911682,8.77210125911682,0,1,1,8.77210125911682,0" vector-effect="non-scaling-stroke" stroke="#e56af1" fill="#e56af1" fill-opacity="0.5" stroke-opacity="0" stroke-width="1" transform="translate(295.69786964285714,353.6374736823005) scale(1)" id="dot-2"/><path class="data-point" d="M9.161034279950107,0A9.161034279950107,9.161034279950107,0,1,1,-9.161034279950107,0A9.161034279950107,9.161034279950107,0,1,1,9.161034279950107,0" vector-effect="non-scaling-stroke" stroke="#a2a400" fill="#a2a400" fill-opacity="0.5" stroke-opacity="0" stroke-width="1" transform="translate(354.10130944911407,402.157112779772) scale(1)" id="dot-3"/><path class="data-point" d="M8.513102810332644,0A8.513102810332644,8.513102810332644,0,1,1,-8.513102810332644,0A8.513102810332644,8.513102810332644,0,1,1,8.513102810332644,0" vector-effect="non-scaling-stroke" stroke="#f5756c" fill="#f5756c" fill-opacity="0.5" stroke-opacity="0" stroke-width="1" transform="translate(258.2110106044224,321.29104761731946) scale(1)" id="dot-4"/><path class="data-point" d="M12.235793715712296,0A12.235793715712296,12.235793715712296,0,1,1,-12.235793715712296,0A12.235793715712296,12.235793715712296,0,1,1,12.235793715712296,0" vector-effect="non-scaling-stroke" stroke="#a2a400" fill="#a2a400" fill-opacity="0.5" stroke-opacity="0" stroke-width="1" transform="translate(904.995150970459,580.0624561371675) scale(1)" id="dot-5"/><path class="data-point" d="M8.501663025352482,0A8.501663025352482,8.501663025352482,0,1,1,-8.501663025352482,0A8.501663025352482,8.501663025352482,0,1,1,8.501663025352482,0" vector-effect="non-scaling-stroke" stroke="#e56af1" fill="#e56af1" fill-opacity="0.5" stroke-opacity="0" stroke-width="1" transform="translate(256.5811471679687,337.46426064981) scale(1)" id="dot-6"/><path class="data-point" d="M8.147026117730798,0A8.147026117730798,8.147026117730798,0,1,1,-8.147026117730798,0A8.147026117730798,8.147026117730798,0,1,1,8.147026117730798,0" vector-effect="non-scaling-stroke" stroke="#a2a400" fill="#a2a400" fill-opacity="0.5" stroke-opacity="0" stroke-width="1" transform="translate(207.14195626220703,337.46426064981) scale(1)" id="dot-7"/><path class="data-point" d="M10.349868415136875,0A10.349868415136875,10.349868415136875,0,1,1,-10.349868415136875,0A10.349868415136875,10.349868415136875,0,1,1,10.349868415136875,0" vector-effect="non-scaling-stroke" stroke="#a2a400" fill="#a2a400" fill-opacity="0.5" stroke-opacity="0" stroke-width="1" transform="translate(548.3267022931781,434.50353884475294) scale(1)" id="dot-8"/><path class="data-point" d="M11.608591796883552,0A11.608591796883552,11.608591796883552,0,1,1,-11.608591796883552,0A11.608591796883552,11.608591796883552,0,1,1,11.608591796883552,0" vector-effect="non-scaling-stroke" stroke="#a2a400" fill="#a2a400" fill-opacity="0.5" stroke-opacity="0" stroke-width="1" transform="translate(779.767310269601,515.3696040072055) scale(1)" id="dot-9"/><path class="data-point" d="M12.408239309209579,0A12.408239309209579,12.408239309209579,0,1,1,-12.408239309209579,0A12.408239309209579,12.408239309209579,0,1,1,12.408239309209579,0" vector-effect="non-scaling-stroke" stroke="#a2a400" fill="#a2a400" fill-opacity="0.5" stroke-opacity="0" stroke-width="1" transform="translate(940.5805026663643,531.5428170396959) scale(1)" id="dot-10"/><path class="data-point" d="M10.091179972730755,0A10.091179972730755,10.091179972730755,0,1,1,-10.091179972730755,0A10.091179972730755,10.091179972730755,0,1,1,10.091179972730755,0" vector-effect="non-scaling-stroke" stroke="#a2a400" fill="#a2a400" fill-opacity="0.5" stroke-opacity="0" stroke-width="1" transform="translate(504.048745602853,450.6767518772435) scale(1)" id="dot-11"/><path class="data-point" d="M7.584040816906322,0A7.584040816906322,7.584040816906322,0,1,1,-7.584040816906322,0A7.584040816906322,7.584040816906322,0,1,1,7.584040816906322,0" vector-effect="non-scaling-stroke" stroke="#e56af1" fill="#e56af1" fill-opacity="0.5" stroke-opacity="0" stroke-width="1" transform="translate(132.98316990356446,240.424982454867) scale(1)" id="dot-12"/><path class="data-point" d="M8.596529419018234,0A8.596529419018234,8.596529419018234,0,1,1,-8.596529419018234,0A8.596529419018234,8.596529419018234,0,1,1,8.596529419018234,0" vector-effect="non-scaling-stroke" stroke="#e56af1" fill="#e56af1" fill-opacity="0.5" stroke-opacity="0" stroke-width="1" transform="translate(270.1633424717494,353.6374736823005) scale(1)" id="dot-13"/><path class="data-point" d="M8.497846341422601,0A8.497846341422601,8.497846341422601,0,1,1,-8.497846341422601,0A8.497846341422601,8.497846341422601,0,1,1,8.497846341422601,0" vector-effect="non-scaling-stroke" stroke="#a2a400" fill="#a2a400" fill-opacity="0.5" stroke-opacity="0" stroke-width="1" transform="translate(256.0378593558175,402.157112779772) scale(1)" id="dot-14"/><path class="data-point" d="M11.5736071118287,0A11.5736071118287,11.5736071118287,0,1,1,-11.5736071118287,0A11.5736071118287,11.5736071118287,0,1,1,11.5736071118287,0" vector-effect="non-scaling-stroke" stroke="#a2a400" fill="#a2a400" fill-opacity="0.5" stroke-opacity="0" stroke-width="1" transform="translate(772.9762126177106,515.3696040072055) scale(1)" id="dot-15"/><path class="data-point" d="M11.802589813333064,0A11.802589813333064,11.802589813333064,0,1,1,-11.802589813333064,0A11.802589813333064,11.802589813333064,0,1,1,11.802589813333064,0" vector-effect="non-scaling-stroke" stroke="#a2a400" fill="#a2a400" fill-opacity="0.5" stroke-opacity="0" stroke-width="1" transform="translate(817.7974571201869,531.5428170396959) scale(1)" id="dot-16"/><path class="data-point" d="M8.814527819099734,0A8.814527819099734,8.814527819099734,0,1,1,-8.814527819099734,0A8.814527819099734,8.814527819099734,0,1,1,8.814527819099734,0" vector-effect="non-scaling-stroke" stroke="#a2a400" fill="#a2a400" fill-opacity="0.5" stroke-opacity="0" stroke-width="1" transform="translate(301.94567948259623,385.98389974728144) scale(1)" id="dot-17"/><path class="data-point" d="M9.016475920927874,0A9.016475920927874,9.016475920927874,0,1,1,-9.016475920927874,0A9.016475920927874,9.016475920927874,0,1,1,9.016475920927874,0" vector-effect="non-scaling-stroke" stroke="#e56af1" fill="#e56af1" fill-opacity="0.5" stroke-opacity="0" stroke-width="1" transform="translate(332.09815305698936,369.8106867147909) scale(1)" id="dot-18"/><path class="data-point" d="M8.253838011908172,0A8.253838011908172,8.253838011908172,0,1,1,-8.253838011908172,0A8.253838011908172,8.253838011908172,0,1,1,8.253838011908172,0" vector-effect="non-scaling-stroke" stroke="#e56af1" fill="#e56af1" fill-opacity="0.5" stroke-opacity="0" stroke-width="1" transform="translate(221.81072719029018,305.117834584829) scale(1)" id="dot-19"/><path class="data-point" d="M11.451027258310713,0A11.451027258310713,11.451027258310713,0,1,1,-11.451027258310713,0A11.451027258310713,11.451027258310713,0,1,1,11.451027258310713,0" vector-effect="non-scaling-stroke" stroke="#a2a400" fill="#a2a400" fill-opacity="0.5" stroke-opacity="0" stroke-width="1" transform="translate(749.3431927891323,515.3696040072055) scale(1)" id="dot-20"/><path class="data-point" d="M11.897039414167127,0A11.897039414167127,11.897039414167127,0,1,1,-11.897039414167127,0A11.897039414167127,11.897039414167127,0,1,1,11.897039414167127,0" vector-effect="non-scaling-stroke" stroke="#a2a400" fill="#a2a400" fill-opacity="0.5" stroke-opacity="0" stroke-width="1" transform="translate(836.5408866394042,531.5428170396959) scale(1)" id="dot-21"/><path class="data-point" d="M9.899691396366714,0A9.899691396366714,9.899691396366714,0,1,1,-9.899691396366714,0A9.899691396366714,9.899691396366714,0,1,1,9.899691396366714,0" vector-effect="non-scaling-stroke" stroke="#a2a400" fill="#a2a400" fill-opacity="0.5" stroke-opacity="0" stroke-width="1" transform="translate(471.99476468593053,450.6767518772435) scale(1)" id="dot-22"/><path class="data-point" d="M12.6156626101008,0A12.6156626101008,12.6156626101008,0,1,1,-12.6156626101008,0A12.6156626101008,12.6156626101008,0,1,1,12.6156626101008,0" vector-effect="non-scaling-stroke" stroke="#a2a400" fill="#a2a400" fill-opacity="0.5" stroke-opacity="0" stroke-width="1" transform="translate(984.0435276384626,547.7160300721864) scale(1)" id="dot-23"/><path class="data-point" d="M8.598416070948998,0A8.598416070948998,8.598416070948998,0,1,1,-8.598416070948998,0A8.598416070948998,8.598416070948998,0,1,1,8.598416070948998,0" vector-effect="non-scaling-stroke" stroke="#e56af1" fill="#e56af1" fill-opacity="0.5" stroke-opacity="0" stroke-width="1" transform="translate(270.43498637782506,418.33032581226246) scale(1)" id="dot-24"/><path class="data-point" d="M8.656698338252426,0A8.656698338252426,8.656698338252426,0,1,1,-8.656698338252426,0A8.656698338252426,8.656698338252426,0,1,1,8.656698338252426,0" vector-effect="non-scaling-stroke" stroke="#a2a400" fill="#a2a400" fill-opacity="0.5" stroke-opacity="0" stroke-width="1" transform="translate(278.8559474661691,434.50353884475294) scale(1)" id="dot-25"/><path class="data-point" d="M9.54261714846525,0A9.54261714846525,9.54261714846525,0,1,1,-9.54261714846525,0A9.54261714846525,9.54261714846525,0,1,1,9.54261714846525,0" vector-effect="non-scaling-stroke" stroke="#e56af1" fill="#e56af1" fill-opacity="0.5" stroke-opacity="0" stroke-width="1" transform="translate(413.86296878574916,418.33032581226246) scale(1)" id="dot-26"/><path class="data-point" d="M9.657511153787384,0A9.657511153787384,9.657511153787384,0,1,1,-9.657511153787384,0A9.657511153787384,9.657511153787384,0,1,1,9.657511153787384,0" vector-effect="non-scaling-stroke" stroke="#a2a400" fill="#a2a400" fill-opacity="0.5" stroke-opacity="0" stroke-width="1" transform="translate(432.33475439889094,402.157112779772) scale(1)" id="dot-27"/><path class="data-point" d="M8.91698322257767,0A8.91698322257767,8.91698322257767,0,1,1,-8.91698322257767,0A8.91698322257767,8.91698322257767,0,1,1,8.91698322257767,0" vector-effect="non-scaling-stroke" stroke="#a2a400" fill="#a2a400" fill-opacity="0.5" stroke-opacity="0" stroke-width="1" transform="translate(317.1577382228307,321.29104761731946) scale(1)" id="dot-28"/><path class="data-point" d="M7.717606518235153,0A7.717606518235153,7.717606518235153,0,1,1,-7.717606518235153,0A7.717606518235153,7.717606518235153,0,1,1,7.717606518235153,0" vector-effect="non-scaling-stroke" stroke="#e56af1" fill="#e56af1" fill-opacity="0.5" stroke-opacity="0" stroke-width="1" transform="translate(150.09673598632813,224.25176942237647) scale(1)" id="dot-29"/><path class="data-point" d="M11.590412939333437,0A11.590412939333437,11.590412939333437,0,1,1,-11.590412939333437,0A11.590412939333437,11.590412939333437,0,1,1,11.590412939333437,0" vector-effect="non-scaling-stroke" stroke="#a2a400" fill="#a2a400" fill-opacity="0.5" stroke-opacity="0" stroke-width="1" transform="translate(776.235939490618,483.02317794222444) scale(1)" id="dot-30"/><path class="data-point" d="M12.26624588156249,0A12.26624588156249,12.26624588156249,0,1,1,-12.26624588156249,0A12.26624588156249,12.26624588156249,0,1,1,12.26624588156249,0" vector-effect="non-scaling-stroke" stroke="#a2a400" fill="#a2a400" fill-opacity="0.5" stroke-opacity="0" stroke-width="1" transform="translate(911.242960810198,515.3696040072055) scale(1)" id="dot-31"/><path class="data-point" d="M7.314028052387269,0A7.314028052387269,7.314028052387269,0,1,1,-7.314028052387269,0A7.314028052387269,7.314028052387269,0,1,1,7.314028052387269,0" vector-effect="non-scaling-stroke" stroke="#e56af1" fill="#e56af1" fill-opacity="0.5" stroke-opacity="0" stroke-width="1" transform="translate(99.29932555018834,240.424982454867) scale(1)" id="dot-32"/><path class="data-point" d="M8.98584125843741,0A8.98584125843741,8.98584125843741,0,1,1,-8.98584125843741,0A8.98584125843741,8.98584125843741,0,1,1,8.98584125843741,0" vector-effect="non-scaling-stroke" stroke="#02bd7c" fill="#02bd7c" fill-opacity="0.5" stroke-opacity="0" stroke-width="1" transform="translate(327.480206653704,353.6374736823005) scale(1)" id="dot-33"/><path class="data-point" d="M10.121674264028382,0A10.121674264028382,10.121674264028382,0,1,1,-10.121674264028382,0A10.121674264028382,10.121674264028382,0,1,1,10.121674264028382,0" vector-effect="non-scaling-stroke" stroke="#a2a400" fill="#a2a400" fill-opacity="0.5" stroke-opacity="0" stroke-width="1" transform="translate(509.2099798182896,499.1963909747149) scale(1)" id="dot-34"/><path class="data-point" d="M12.291345113208763,0A12.291345113208763,12.291345113208763,0,1,1,-12.291345113208763,0A12.291345113208763,12.291345113208763,0,1,1,12.291345113208763,0" vector-effect="non-scaling-stroke" stroke="#a2a400" fill="#a2a400" fill-opacity="0.5" stroke-opacity="0" stroke-width="1" transform="translate(916.4041950256347,515.3696040072055) scale(1)" id="dot-35"/><path class="data-point" d="M10.139286935247595,0A10.139286935247595,10.139286935247595,0,1,1,-10.139286935247595,0A10.139286935247595,10.139286935247595,0,1,1,10.139286935247595,0" vector-effect="non-scaling-stroke" stroke="#a2a400" fill="#a2a400" fill-opacity="0.5" stroke-opacity="0" stroke-width="1" transform="translate(512.1980627851214,531.5428170396959) scale(1)" id="dot-36"/><path class="data-point" d="M8.39220734976734,0A8.39220734976734,8.39220734976734,0,1,1,-8.39220734976734,0A8.39220734976734,8.39220734976734,0,1,1,8.39220734976734,0" vector-effect="non-scaling-stroke" stroke="#e56af1" fill="#e56af1" fill-opacity="0.5" stroke-opacity="0" stroke-width="1" transform="translate(241.09744452165876,272.77140851984797) scale(1)" id="dot-37"/><path class="data-point" d="M9.252646901726957,0A9.252646901726957,9.252646901726957,0,1,1,-9.252646901726957,0A9.252646901726957,9.252646901726957,0,1,1,9.252646901726957,0" vector-effect="non-scaling-stroke" stroke="#a2a400" fill="#a2a400" fill-opacity="0.5" stroke-opacity="0" stroke-width="1" transform="translate(368.2267925650461,369.8106867147909) scale(1)" id="dot-38"/><path class="data-point" d="M9.362438247905407,0A9.362438247905407,9.362438247905407,0,1,1,-9.362438247905407,0A9.362438247905407,9.362438247905407,0,1,1,9.362438247905407,0" vector-effect="non-scaling-stroke" stroke="#e56af1" fill="#e56af1" fill-opacity="0.5" stroke-opacity="0" stroke-width="1" transform="translate(385.34035864780964,353.6374736823005) scale(1)" id="dot-39"/><path class="data-point" d="M9.83888089623514,0A9.83888089623514,9.83888089623514,0,1,1,-9.83888089623514,0A9.83888089623514,9.83888089623514,0,1,1,9.83888089623514,0" vector-effect="non-scaling-stroke" stroke="#a2a400" fill="#a2a400" fill-opacity="0.5" stroke-opacity="0" stroke-width="1" transform="translate(461.9439401611328,450.6767518772435) scale(1)" id="dot-40"/><path class="data-point" d="M7.630948460635632,0A7.630948460635632,7.630948460635632,0,1,1,-7.630948460635632,0A7.630948460635632,7.630948460635632,0,1,1,7.630948460635632,0" vector-effect="non-scaling-stroke" stroke="#02bd7c" fill="#02bd7c" fill-opacity="0.5" stroke-opacity="0" stroke-width="1" transform="translate(138.95933583722794,208.078556389886) scale(1)" id="dot-41"/><path class="data-point" d="M11.693515169112352,0A11.693515169112352,11.693515169112352,0,1,1,-11.693515169112352,0A11.693515169112352,11.693515169112352,0,1,1,11.693515169112352,0" vector-effect="non-scaling-stroke" stroke="#a2a400" fill="#a2a400" fill-opacity="0.5" stroke-opacity="0" stroke-width="1" transform="translate(796.3375885402135,507.2829974909602) scale(1)" id="dot-42"/><path class="data-point" d="M9.88493408421751,0A9.88493408421751,9.88493408421751,0,1,1,-9.88493408421751,0A9.88493408421751,9.88493408421751,0,1,1,9.88493408421751,0" vector-effect="non-scaling-stroke" stroke="#a2a400" fill="#a2a400" fill-opacity="0.5" stroke-opacity="0" stroke-width="1" transform="translate(469.54996953125,353.6374736823005) scale(1)" id="dot-43"/><path class="data-point" d="M7.630948460635632,0A7.630948460635632,7.630948460635632,0,1,1,-7.630948460635632,0A7.630948460635632,7.630948460635632,0,1,1,7.630948460635632,0" vector-effect="non-scaling-stroke" stroke="#02bd7c" fill="#02bd7c" fill-opacity="0.5" stroke-opacity="0" stroke-width="1" transform="translate(138.95933583722794,208.078556389886) scale(1)" id="dot-44"/><path class="data-point" d="M10.767715392971088,0A10.767715392971088,10.767715392971088,0,1,1,-10.767715392971088,0A10.767715392971088,10.767715392971088,0,1,1,10.767715392971088,0" vector-effect="non-scaling-stroke" stroke="#a2a400" fill="#a2a400" fill-opacity="0.5" stroke-opacity="0" stroke-width="1" transform="translate(622.2138447457448,450.6767518772435) scale(1)" id="dot-45"/><path class="data-point" d="M8.36122539869371,0A8.36122539869371,8.36122539869371,0,1,1,-8.36122539869371,0A8.36122539869371,8.36122539869371,0,1,1,8.36122539869371,0" vector-effect="non-scaling-stroke" stroke="#e56af1" fill="#e56af1" fill-opacity="0.5" stroke-opacity="0" stroke-width="1" transform="translate(236.7511420244489,288.94462155233845) scale(1)" id="dot-46"/><path class="data-point" d="M9.121998124426728,0A9.121998124426728,9.121998124426728,0,1,1,-9.121998124426728,0A9.121998124426728,9.121998124426728,0,1,1,9.121998124426728,0" vector-effect="non-scaling-stroke" stroke="#a2a400" fill="#a2a400" fill-opacity="0.5" stroke-opacity="0" stroke-width="1" transform="translate(348.1251435154506,313.2044411010742) scale(1)" id="dot-47"/><path class="data-point" d="M9.749449724290509,0A9.749449724290509,9.749449724290509,0,1,1,-9.749449724290509,0A9.749449724290509,9.749449724290509,0,1,1,9.749449724290509,0" vector-effect="non-scaling-stroke" stroke="#e56af1" fill="#e56af1" fill-opacity="0.5" stroke-opacity="0" stroke-width="1" transform="translate(447.27516923304967,434.50353884475294) scale(1)" id="dot-48"/><path class="data-point" d="M11.13212246395973,0A11.13212246395973,11.13212246395973,0,1,1,-11.13212246395973,0A11.13212246395973,11.13212246395973,0,1,1,11.13212246395973,0" vector-effect="non-scaling-stroke" stroke="#01aff4" fill="#01aff4" fill-opacity="0.5" stroke-opacity="0" stroke-width="1" transform="translate(689.0382456403458,474.9365714259792) scale(1)" id="dot-49"/><path class="data-point" d="M11.204739818844406,0A11.204739818844406,11.204739818844406,0,1,1,-11.204739818844406,0A11.204739818844406,11.204739818844406,0,1,1,11.204739818844406,0" vector-effect="non-scaling-stroke" stroke="#a2a400" fill="#a2a400" fill-opacity="0.5" stroke-opacity="0" stroke-width="1" transform="translate(702.6204409441267,531.5428170396959) scale(1)" id="dot-50"/><path class="data-point" d="M8.145034910046716,0A8.145034910046716,8.145034910046716,0,1,1,-8.145034910046716,0A8.145034910046716,8.145034910046716,0,1,1,8.145034910046716,0" vector-effect="non-scaling-stroke" stroke="#02bd7c" fill="#02bd7c" fill-opacity="0.5" stroke-opacity="0" stroke-width="1" transform="translate(206.87031235613142,232.33837593862177) scale(1)" id="dot-51"/><path class="data-point" d="M10.693647263947602,0A10.693647263947602,10.693647263947602,0,1,1,-10.693647263947602,0A10.693647263947602,10.693647263947602,0,1,1,10.693647263947602,0" vector-effect="non-scaling-stroke" stroke="#a2a400" fill="#a2a400" fill-opacity="0.5" stroke-opacity="0" stroke-width="1" transform="translate(608.9032933480399,442.59014536099824) scale(1)" id="dot-52"/><path class="data-point" d="M11.85880273312706,0A11.85880273312706,11.85880273312706,0,1,1,-11.85880273312706,0A11.85880273312706,11.85880273312706,0,1,1,11.85880273312706,0" vector-effect="non-scaling-stroke" stroke="#a2a400" fill="#a2a400" fill-opacity="0.5" stroke-opacity="0" stroke-width="1" transform="translate(828.9348572692871,483.02317794222444) scale(1)" id="dot-53"/><path class="data-point" d="M8.571965156814501,0A8.571965156814501,8.571965156814501,0,1,1,-8.571965156814501,0A8.571965156814501,8.571965156814501,0,1,1,8.571965156814501,0" vector-effect="non-scaling-stroke" stroke="#e56af1" fill="#e56af1" fill-opacity="0.5" stroke-opacity="0" stroke-width="1" transform="translate(266.63197169276646,321.29104761731946) scale(1)" id="dot-54"/><path class="data-point" d="M9.453814914232591,0A9.453814914232591,9.453814914232591,0,1,1,-9.453814914232591,0A9.453814914232591,9.453814914232591,0,1,1,9.453814914232591,0" vector-effect="non-scaling-stroke" stroke="#a2a400" fill="#a2a400" fill-opacity="0.5" stroke-opacity="0" stroke-width="1" transform="translate(399.73748566981726,329.3776541335647) scale(1)" id="dot-55"/><path class="data-point" d="M9.184023109771942,0A9.184023109771942,9.184023109771942,0,1,1,-9.184023109771942,0A9.184023109771942,9.184023109771942,0,1,1,9.184023109771942,0" vector-effect="non-scaling-stroke" stroke="#f5756c" fill="#f5756c" fill-opacity="0.5" stroke-opacity="0" stroke-width="1" transform="translate(357.63268022809706,394.0705062635267) scale(1)" id="dot-56"/><path class="data-point" d="M7.641569131691303,0A7.641569131691303,7.641569131691303,0,1,1,-7.641569131691303,0A7.641569131691303,7.641569131691303,0,1,1,7.641569131691303,0" vector-effect="non-scaling-stroke" stroke="#a2a400" fill="#a2a400" fill-opacity="0.5" stroke-opacity="0" stroke-width="1" transform="translate(140.31755536760602,157.94159598916542) scale(1)" id="dot-57"/><path class="data-point" d="M7.641569131691303,0A7.641569131691303,7.641569131691303,0,1,1,-7.641569131691303,0A7.641569131691303,7.641569131691303,0,1,1,7.641569131691303,0" vector-effect="non-scaling-stroke" stroke="#02bd7c" fill="#02bd7c" fill-opacity="0.5" stroke-opacity="0" stroke-width="1" transform="translate(140.31755536760602,157.94159598916542) scale(1)" id="dot-58"/><path class="data-point" d="M9.807507360448353,0A9.807507360448353,9.807507360448353,0,1,1,-9.807507360448353,0A9.807507360448353,9.807507360448353,0,1,1,9.807507360448353,0" vector-effect="non-scaling-stroke" stroke="#a2a400" fill="#a2a400" fill-opacity="0.5" stroke-opacity="0" stroke-width="1" transform="translate(456.78270594569614,415.0956832057644) scale(1)" id="dot-59"/><path class="data-point" d="M9.393571511080664,0A9.393571511080664,9.393571511080664,0,1,1,-9.393571511080664,0A9.393571511080664,9.393571511080664,0,1,1,9.393571511080664,0" vector-effect="non-scaling-stroke" stroke="#a2a400" fill="#a2a400" fill-opacity="0.5" stroke-opacity="0" stroke-width="1" transform="translate(390.2299489571708,335.8469393465609) scale(1)" id="dot-60"/><path class="data-point" d="M10.196715703164962,0A10.196715703164962,10.196715703164962,0,1,1,-10.196715703164962,0A10.196715703164962,10.196715703164962,0,1,1,10.196715703164962,0" vector-effect="non-scaling-stroke" stroke="#a2a400" fill="#a2a400" fill-opacity="0.5" stroke-opacity="0" stroke-width="1" transform="translate(521.9772434038435,449.05943057399435) scale(1)" id="dot-61"/><path class="data-point" d="M9.113102951053756,0A9.113102951053756,9.113102951053756,0,1,1,-9.113102951053756,0A9.113102951053756,9.113102951053756,0,1,1,9.113102951053756,0" vector-effect="non-scaling-stroke" stroke="#e56af1" fill="#e56af1" fill-opacity="0.5" stroke-opacity="0" stroke-width="1" transform="translate(346.76692398507254,297.03122806858374) scale(1)" id="dot-62"/><path class="data-point" d="M9.032652208883295,0A9.032652208883295,9.032652208883295,0,1,1,-9.032652208883295,0A9.032652208883295,9.032652208883295,0,1,1,9.032652208883295,0" vector-effect="non-scaling-stroke" stroke="#e56af1" fill="#e56af1" fill-opacity="0.5" stroke-opacity="0" stroke-width="1" transform="translate(334.5429482116699,400.5397914765229) scale(1)" id="dot-63"/><path class="data-point" d="M8.322335767415336,0A8.322335767415336,8.322335767415336,0,1,1,-8.322335767415336,0A8.322335767415336,8.322335767415336,0,1,1,8.322335767415336,0" vector-effect="non-scaling-stroke" stroke="#02bd7c" fill="#02bd7c" fill-opacity="0.5" stroke-opacity="0" stroke-width="1" transform="translate(231.31826390293668,264.6848020036027) scale(1)" id="dot-64"/><path class="data-point" d="M9.682671885494617,0A9.682671885494617,9.682671885494617,0,1,1,-9.682671885494617,0A9.682671885494617,9.682671885494617,0,1,1,9.682671885494617,0" vector-effect="non-scaling-stroke" stroke="#a2a400" fill="#a2a400" fill-opacity="0.5" stroke-opacity="0" stroke-width="1" transform="translate(436.4094129900251,381.1319358375343) scale(1)" id="dot-65"/><path class="data-point" d="M10.992827990437036,0A10.992827990437036,10.992827990437036,0,1,1,-10.992827990437036,0A10.992827990437036,10.992827990437036,0,1,1,10.992827990437036,0" vector-effect="non-scaling-stroke" stroke="#a2a400" fill="#a2a400" fill-opacity="0.5" stroke-opacity="0" stroke-width="1" transform="translate(663.2320745631625,457.14603709023964) scale(1)" id="dot-66"/><path class="data-point" d="M11.46801272217079,0A11.46801272217079,11.46801272217079,0,1,1,-11.46801272217079,0A11.46801272217079,11.46801272217079,0,1,1,11.46801272217079,0" vector-effect="non-scaling-stroke" stroke="#a2a400" fill="#a2a400" fill-opacity="0.5" stroke-opacity="0" stroke-width="1" transform="translate(752.6029196620397,491.1097844584697) scale(1)" id="dot-67"/><path class="data-point" d="M10.701228723435177,0A10.701228723435177,10.701228723435177,0,1,1,-10.701228723435177,0A10.701228723435177,10.701228723435177,0,1,1,10.701228723435177,0" vector-effect="non-scaling-stroke" stroke="#01aff4" fill="#01aff4" fill-opacity="0.5" stroke-opacity="0" stroke-width="1" transform="translate(610.2615128784179,330.9949754368138) scale(1)" id="dot-68"/><path class="data-point" d="M7.990221908593215,0A7.990221908593215,7.990221908593215,0,1,1,-7.990221908593215,0A7.990221908593215,7.990221908593215,0,1,1,7.990221908593215,0" vector-effect="non-scaling-stroke" stroke="#e56af1" fill="#e56af1" fill-opacity="0.5" stroke-opacity="0" stroke-width="1" transform="translate(185.95373158830915,125.59516992418443) scale(1)" id="dot-69"/><path class="data-point" d="M9.649109663590092,0A9.649109663590092,9.649109663590092,0,1,1,-9.649109663590092,0A9.649109663590092,9.649109663590092,0,1,1,9.649109663590092,0" vector-effect="non-scaling-stroke" stroke="#a2a400" fill="#a2a400" fill-opacity="0.5" stroke-opacity="0" stroke-width="1" transform="translate(430.97653486851283,314.82176240432324) scale(1)" id="dot-70"/><path class="data-point" d="M9.378017799077488,0A9.378017799077488,9.378017799077488,0,1,1,-9.378017799077488,0A9.378017799077488,9.378017799077488,0,1,1,9.378017799077488,0" vector-effect="non-scaling-stroke" stroke="#e56af1" fill="#e56af1" fill-opacity="0.5" stroke-opacity="0" stroke-width="1" transform="translate(387.7851538024902,259.83283809385557) scale(1)" id="dot-71"/><path class="data-point" d="M8.571965156814501,0A8.571965156814501,8.571965156814501,0,1,1,-8.571965156814501,0A8.571965156814501,8.571965156814501,0,1,1,8.571965156814501,0" vector-effect="non-scaling-stroke" stroke="#e56af1" fill="#e56af1" fill-opacity="0.5" stroke-opacity="0" stroke-width="1" transform="translate(266.63197169276646,221.01712681587833) scale(1)" id="dot-72"/><path class="data-point" d="M10.268049990189537,0A10.268049990189537,10.268049990189537,0,1,1,-10.268049990189537,0A10.268049990189537,10.268049990189537,0,1,1,10.268049990189537,0" vector-effect="non-scaling-stroke" stroke="#01aff4" fill="#01aff4" fill-opacity="0.5" stroke-opacity="0" stroke-width="1" transform="translate(534.2012191772461,256.59819548735743) scale(1)" id="dot-73"/><path class="data-point" d="M7.746975064489226,0A7.746975064489226,7.746975064489226,0,1,1,-7.746975064489226,0A7.746975064489226,7.746975064489226,0,1,1,7.746975064489226,0" vector-effect="non-scaling-stroke" stroke="#02bd7c" fill="#02bd7c" fill-opacity="0.5" stroke-opacity="0" stroke-width="1" transform="translate(153.89975067138673,20.469285212996198) scale(1)" id="dot-74"/><path class="data-point" d="M9.70776740547321,0A9.70776740547321,9.70776740547321,0,1,1,-9.70776740547321,0A9.70776740547321,9.70776740547321,0,1,1,9.70776740547321,0" vector-effect="non-scaling-stroke" stroke="#a2a400" fill="#a2a400" fill-opacity="0.5" stroke-opacity="0" stroke-width="1" transform="translate(440.4840715811593,360.10675889529665) scale(1)" id="dot-75"/><path class="data-point" d="M8.619141986145841,0A8.619141986145841,8.619141986145841,0,1,1,-8.619141986145841,0A8.619141986145841,8.619141986145841,0,1,1,8.619141986145841,0" vector-effect="non-scaling-stroke" stroke="#02bd7c" fill="#02bd7c" fill-opacity="0.5" stroke-opacity="0" stroke-width="1" transform="translate(273.42306934465677,217.78248420938033) scale(1)" id="dot-76"/><path class="data-point" d="M7.545444938806256,0A7.545444938806256,7.545444938806256,0,1,1,-7.545444938806256,0A7.545444938806256,7.545444938806256,0,1,1,7.545444938806256,0" vector-effect="non-scaling-stroke" stroke="#e56af1" fill="#e56af1" fill-opacity="0.5" stroke-opacity="0" stroke-width="1" transform="translate(128.0935795942034,109.4219568916939) scale(1)" id="dot-77"/><path class="data-point" d="M7.556185791131461,0A7.556185791131461,7.556185791131461,0,1,1,-7.556185791131461,0A7.556185791131461,7.556185791131461,0,1,1,7.556185791131461,0" vector-effect="non-scaling-stroke" stroke="#02bd7c" fill="#02bd7c" fill-opacity="0.5" stroke-opacity="0" stroke-width="1" transform="translate(129.45179912458147,174.1148090216559) scale(1)" id="dot-78"/><path class="data-point" d="M8.154986086525211,0A8.154986086525211,8.154986086525211,0,1,1,-8.154986086525211,0A8.154986086525211,8.154986086525211,0,1,1,8.154986086525211,0" vector-effect="non-scaling-stroke" stroke="#e56af1" fill="#e56af1" fill-opacity="0.5" stroke-opacity="0" stroke-width="1" transform="translate(208.22853188650947,132.06445513718057) scale(1)" id="dot-79"/><path class="data-point" d="M8.145034910046716,0A8.145034910046716,8.145034910046716,0,1,1,-8.145034910046716,0A8.145034910046716,8.145034910046716,0,1,1,8.145034910046716,0" vector-effect="non-scaling-stroke" stroke="#a2a400" fill="#a2a400" fill-opacity="0.5" stroke-opacity="0" stroke-width="1" transform="translate(206.87031235613142,185.43605814439934) scale(1)" id="dot-80"/><path class="data-point" d="M8.786881558156054,0A8.786881558156054,8.786881558156054,0,1,1,-8.786881558156054,0A8.786881558156054,8.786881558156054,0,1,1,8.786881558156054,0" vector-effect="non-scaling-stroke" stroke="#a2a400" fill="#a2a400" fill-opacity="0.5" stroke-opacity="0" stroke-width="1" transform="translate(297.8710208914621,258.21551679060656) scale(1)" id="dot-81"/><path class="data-point" d="M8.46725093573477,0A8.46725093573477,8.46725093573477,0,1,1,-8.46725093573477,0A8.46725093573477,8.46725093573477,0,1,1,8.46725093573477,0" vector-effect="non-scaling-stroke" stroke="#02bd7c" fill="#02bd7c" fill-opacity="0.5" stroke-opacity="0" stroke-width="1" transform="translate(251.6915568586077,196.75730726714255) scale(1)" id="dot-82"/><path class="data-point" d="M8.73132642866035,0A8.73132642866035,8.73132642866035,0,1,1,-8.73132642866035,0A8.73132642866035,8.73132642866035,0,1,1,8.73132642866035,0" vector-effect="non-scaling-stroke" stroke="#e56af1" fill="#e56af1" fill-opacity="0.5" stroke-opacity="0" stroke-width="1" transform="translate(289.7217037091936,217.78248420938033) scale(1)" id="dot-83"/><path class="data-point" d="M9.699409446622408,0A9.699409446622408,9.699409446622408,0,1,1,-9.699409446622408,0A9.699409446622408,9.699409446622408,0,1,1,9.699409446622408,0" vector-effect="non-scaling-stroke" stroke="#e56af1" fill="#e56af1" fill-opacity="0.5" stroke-opacity="0" stroke-width="1" transform="translate(439.12585205078125,330.9949754368138) scale(1)" id="dot-84"/><path class="data-point" d="M9.96338717256885,0A9.96338717256885,9.96338717256885,0,1,1,-9.96338717256885,0A9.96338717256885,9.96338717256885,0,1,1,9.96338717256885,0" vector-effect="non-scaling-stroke" stroke="#a2a400" fill="#a2a400" fill-opacity="0.5" stroke-opacity="0" stroke-width="1" transform="translate(482.58887702287944,415.0956832057644) scale(1)" id="dot-85"/><path class="data-point" d="M9.640700851828546,0A9.640700851828546,9.640700851828546,0,1,1,-9.640700851828546,0A9.640700851828546,9.640700851828546,0,1,1,9.640700851828546,0" vector-effect="non-scaling-stroke" stroke="#a2a400" fill="#a2a400" fill-opacity="0.5" stroke-opacity="0" stroke-width="1" transform="translate(429.6183153381348,353.6374736823005) scale(1)" id="dot-86"/><path class="data-point" d="M8.457667173822891,0A8.457667173822891,8.457667173822891,0,1,1,-8.457667173822891,0A8.457667173822891,8.457667173822891,0,1,1,8.457667173822891,0" vector-effect="non-scaling-stroke" stroke="#02bd7c" fill="#02bd7c" fill-opacity="0.5" stroke-opacity="0" stroke-width="1" transform="translate(250.33333732822962,159.55891729241446) scale(1)" id="dot-87"/><path class="data-point" d="M8.53403592138454,0A8.53403592138454,8.53403592138454,0,1,1,-8.53403592138454,0A8.53403592138454,8.53403592138454,0,1,1,8.53403592138454,0" vector-effect="non-scaling-stroke" stroke="#e56af1" fill="#e56af1" fill-opacity="0.5" stroke-opacity="0" stroke-width="1" transform="translate(261.1990935712542,191.90534335739545) scale(1)" id="dot-88"/><path class="data-point" d="M7.9841294777351255,0A7.9841294777351255,7.9841294777351255,0,1,1,-7.9841294777351255,0A7.9841294777351255,7.9841294777351255,0,1,1,7.9841294777351255,0" vector-effect="non-scaling-stroke" stroke="#02bd7c" fill="#02bd7c" fill-opacity="0.5" stroke-opacity="0" stroke-width="1" transform="translate(185.13879987008232,127.21249122743346) scale(1)" id="dot-89"/><path class="data-point" d="M7.9841294777351255,0A7.9841294777351255,7.9841294777351255,0,1,1,-7.9841294777351255,0A7.9841294777351255,7.9841294777351255,0,1,1,7.9841294777351255,0" vector-effect="non-scaling-stroke" stroke="#02bd7c" fill="#02bd7c" fill-opacity="0.5" stroke-opacity="0" stroke-width="1" transform="translate(185.13879987008232,224.25176942237647) scale(1)" id="dot-90"/><path class="data-point" d="M9.590093148724227,0A9.590093148724227,9.590093148724227,0,1,1,-9.590093148724227,0A9.590093148724227,9.590093148724227,0,1,1,9.590093148724227,0" vector-effect="non-scaling-stroke" stroke="#a2a400" fill="#a2a400" fill-opacity="0.5" stroke-opacity="0" stroke-width="1" transform="translate(421.46899815586636,385.98389974728144) scale(1)" id="dot-91"/><path class="data-point" d="M9.298114727881439,0A9.298114727881439,9.298114727881439,0,1,1,-9.298114727881439,0A9.298114727881439,9.298114727881439,0,1,1,9.298114727881439,0" vector-effect="non-scaling-stroke" stroke="#e56af1" fill="#e56af1" fill-opacity="0.5" stroke-opacity="0" stroke-width="1" transform="translate(375.289534123012,224.25176942237647) scale(1)" id="dot-92"/><path class="data-point" d="M9.513676846064666,0A9.513676846064666,9.513676846064666,0,1,1,-9.513676846064666,0A9.513676846064666,9.513676846064666,0,1,1,9.513676846064666,0" vector-effect="non-scaling-stroke" stroke="#a2a400" fill="#a2a400" fill-opacity="0.5" stroke-opacity="0" stroke-width="1" transform="translate(409.24502238246373,305.117834584829) scale(1)" id="dot-93"/><path class="data-point" d="M9.228071434949197,0A9.228071434949197,9.228071434949197,0,1,1,-9.228071434949197,0A9.228071434949197,9.228071434949197,0,1,1,9.228071434949197,0" vector-effect="non-scaling-stroke" stroke="#a2a400" fill="#a2a400" fill-opacity="0.5" stroke-opacity="0" stroke-width="1" transform="translate(364.4237778799874,288.94462155233845) scale(1)" id="dot-94"/></g></svg><svg xmlns="http://www.w3.org/2000/svg" class="fl-annotations" x="10.5" y="127.5"><defs/><g class="fl-annotations-cursor inner-outline"><circle r="16"/><line x1="-6" x2="6"/><line y1="-6" y2="6"/></g><g class="fl-annotations-cursor"><circle r="16"/><line x1="-6" x2="6"/><line y1="-6" y2="6"/></g></svg><svg xmlns="http://www.w3.org/2000/svg" id="overlay" fill="currentColor" style="position: absolute;" width="1024" height="674.7088822021484" x="10.5" y="127.5"><g class="data-labels"/><g class="boxes"/></svg></svg>